<svg width="81" height="43" viewBox="0 0 81 43" fill="none" xmlns="http://www.w3.org/2000/svg">
<g style="mix-blend-mode:soft-light">
<circle cx="1.5" cy="1.5" r="1.5" fill="white"/>
<circle cx="14.5" cy="1.5" r="1.5" fill="white"/>
<circle cx="27.5" cy="1.5" r="1.5" fill="white"/>
<circle cx="40.5" cy="1.5" r="1.5" fill="white"/>
<circle cx="53.5" cy="1.5" r="1.5" fill="white"/>
<circle cx="66.5" cy="1.5" r="1.5" fill="white"/>
<circle cx="79.5" cy="1.5" r="1.5" fill="white"/>
</g>
<g style="mix-blend-mode:soft-light">
<circle cx="1.5" cy="11.5" r="1.5" fill="white"/>
<circle cx="14.5" cy="11.5" r="1.5" fill="white"/>
<circle cx="27.5" cy="11.5" r="1.5" fill="white"/>
<circle cx="40.5" cy="11.5" r="1.5" fill="white"/>
<circle cx="53.5" cy="11.5" r="1.5" fill="white"/>
<circle cx="66.5" cy="11.5" r="1.5" fill="white"/>
<circle cx="79.5" cy="11.5" r="1.5" fill="white"/>
</g>
<g style="mix-blend-mode:soft-light">
<circle cx="1.5" cy="21.5" r="1.5" fill="white"/>
<circle cx="14.5" cy="21.5" r="1.5" fill="white"/>
<circle cx="27.5" cy="21.5" r="1.5" fill="white"/>
<circle cx="40.5" cy="21.5" r="1.5" fill="white"/>
<circle cx="53.5" cy="21.5" r="1.5" fill="white"/>
<circle cx="66.5" cy="21.5" r="1.5" fill="white"/>
<circle cx="79.5" cy="21.5" r="1.5" fill="white"/>
</g>
<g style="mix-blend-mode:soft-light">
<circle cx="1.5" cy="31.5" r="1.5" fill="white"/>
<circle cx="14.5" cy="31.5" r="1.5" fill="white"/>
<circle cx="27.5" cy="31.5" r="1.5" fill="white"/>
<circle cx="40.5" cy="31.5" r="1.5" fill="white"/>
<circle cx="53.5" cy="31.5" r="1.5" fill="white"/>
<circle cx="66.5" cy="31.5" r="1.5" fill="white"/>
<circle cx="79.5" cy="31.5" r="1.5" fill="white"/>
</g>
<g style="mix-blend-mode:soft-light">
<circle cx="1.5" cy="41.5" r="1.5" fill="white"/>
<circle cx="14.5" cy="41.5" r="1.5" fill="white"/>
<circle cx="27.5" cy="41.5" r="1.5" fill="white"/>
<circle cx="40.5" cy="41.5" r="1.5" fill="white"/>
<circle cx="53.5" cy="41.5" r="1.5" fill="white"/>
<circle cx="66.5" cy="41.5" r="1.5" fill="white"/>
<circle cx="79.5" cy="41.5" r="1.5" fill="white"/>
</g>
</svg>
