<svg width="69" height="138" viewBox="0 0 69 138" fill="none" xmlns="http://www.w3.org/2000/svg">
<g style="mix-blend-mode:soft-light">
<mask id="mask0" mask-type="alpha" maskUnits="userSpaceOnUse" x="0" y="0" width="138" height="138">
<circle cx="69" cy="69" r="68.5" fill="white"/>
</mask>
<g mask="url(#mask0)">
<line x1="-94.8536" y1="80.1464" x2="48.1464" y2="-62.8536" stroke="white"/>
<line x1="-88.8536" y1="83.1464" x2="54.1464" y2="-59.8536" stroke="white"/>
<line x1="-82.8536" y1="86.1464" x2="60.1464" y2="-56.8536" stroke="white"/>
<line x1="-76.8536" y1="89.1464" x2="66.1464" y2="-53.8536" stroke="white"/>
<line x1="-70.8536" y1="92.1464" x2="72.1464" y2="-50.8536" stroke="white"/>
<line x1="-64.8536" y1="95.1464" x2="78.1464" y2="-47.8536" stroke="white"/>
<line x1="-58.8536" y1="98.1464" x2="84.1464" y2="-44.8536" stroke="white"/>
<line x1="-52.8536" y1="101.146" x2="90.1464" y2="-41.8536" stroke="white"/>
<line x1="-46.8536" y1="104.146" x2="96.1464" y2="-38.8536" stroke="white"/>
<line x1="-40.8536" y1="107.146" x2="102.146" y2="-35.8536" stroke="white"/>
<line x1="-34.8536" y1="110.146" x2="108.146" y2="-32.8536" stroke="white"/>
<line x1="-28.8536" y1="113.146" x2="114.146" y2="-29.8536" stroke="white"/>
<line x1="-22.8536" y1="116.146" x2="120.146" y2="-26.8536" stroke="white"/>
<line x1="-16.8536" y1="119.146" x2="126.146" y2="-23.8536" stroke="white"/>
<line x1="-10.8536" y1="122.146" x2="132.146" y2="-20.8536" stroke="white"/>
<line x1="-4.85355" y1="125.146" x2="138.146" y2="-17.8536" stroke="white"/>
<line x1="1.14645" y1="128.146" x2="144.146" y2="-14.8536" stroke="white"/>
<line x1="7.14645" y1="131.146" x2="150.146" y2="-11.8536" stroke="white"/>
<line x1="13.1464" y1="134.146" x2="156.146" y2="-8.85355" stroke="white"/>
<line x1="19.1464" y1="137.146" x2="162.146" y2="-5.85355" stroke="white"/>
<line x1="25.1464" y1="140.146" x2="168.146" y2="-2.85355" stroke="white"/>
<line x1="31.1464" y1="143.146" x2="174.146" y2="0.146446" stroke="white"/>
<line x1="37.1464" y1="146.146" x2="180.146" y2="3.14645" stroke="white"/>
<line x1="43.1464" y1="149.146" x2="186.146" y2="6.14645" stroke="white"/>
<line x1="49.1464" y1="152.146" x2="192.146" y2="9.14645" stroke="white"/>
<line x1="55.1464" y1="155.146" x2="198.146" y2="12.1464" stroke="white"/>
<line x1="61.1464" y1="158.146" x2="204.146" y2="15.1464" stroke="white"/>
<line x1="67.1464" y1="161.146" x2="210.146" y2="18.1464" stroke="white"/>
</g>
</g>
</svg>
