<svg width="131" height="627" viewBox="0 0 131 627" fill="none" xmlns="http://www.w3.org/2000/svg">
<path fill-rule="evenodd" clip-rule="evenodd" d="M322.783 174.116C386.579 196.459 445.385 90.7994 511.184 106.275C564.435 118.8 606.639 185.401 602.77 239.968C598.334 302.521 529.135 338.57 491.174 388.484C470.314 415.913 452.984 444.81 428.523 469.084C407.774 489.674 377.908 498.194 358.547 520.094C330.706 551.586 330.707 610.989 290.965 624.68C254.612 637.203 224.869 581.158 186.461 579.375C128.458 576.683 62.9617 648.2 17.5697 611.99C-25.1651 577.901 24.9175 504.862 24.5248 450.197C24.2585 413.123 -3.16183 372.692 15.6212 340.726C36.5486 305.11 106.95 320.325 123.162 282.331C143.625 234.375 90.1083 178.473 106.038 128.827C123.168 75.4437 158.267 -9.57256 213.147 1.89433C280.606 15.9898 257.74 151.336 322.783 174.116Z" fill="url(#paint1_radial)"/>
<defs>
<radialGradient id="paint1_radial" cx="0" cy="0" r="1" gradientUnits="userSpaceOnUse" gradientTransform="translate(195 312) rotate(131.634) scale(325.123 266.722)">
<stop stop-color="#FF1846"/>
<stop offset="0.755208" stop-color="#6F298F" stop-opacity="0.72"/>
<stop offset="1" stop-color="#402FA7" stop-opacity="0.51"/>
</radialGradient>
</defs>
</svg>
