<svg width="140" height="597" viewBox="0 0 140 597" fill="none" xmlns="http://www.w3.org/2000/svg">
<path fill-rule="evenodd" clip-rule="evenodd" d="M-183.126 159.978C-169.8 175.14 -152.189 195.431 -132.306 191.951C-72.9118 181.555 -26.9857 115.227 32.9111 122.164C71.7028 126.656 80.6729 183.433 97.678 218.587C115.65 255.74 150.562 296.613 135.974 335.221C119.053 380.007 47.0507 379.489 21.57 420.021C1.21399 452.401 30.3778 500.109 11.4305 533.333C-6.89008 565.458 -42.1631 600.627 -78.8727 596.147C-126.743 590.305 -156.498 540.664 -192.395 508.46C-212.023 490.851 -217.829 441.572 -243.213 448.713C-306.299 466.461 -334.569 580.58 -398.566 566.46C-447.319 555.703 -363.703 470.135 -370.373 420.657C-374.12 392.863 -427.038 387.018 -426.537 358.978C-425.986 328.16 -380.43 316.618 -368.009 288.409C-358.435 266.668 -360.172 241.22 -364.387 217.84C-376.305 151.735 -442.906 86.053 -415.552 24.7038C-396.803 -17.3442 -318.404 2.31767 -278.614 25.4759C-230.685 53.3712 -219.734 118.323 -183.126 159.978Z" fill="url(#paint0_radial)"/>
<defs>
<radialGradient id="paint0_radial" cx="0" cy="0" r="1" gradientUnits="userSpaceOnUse" gradientTransform="translate(-156.988 311) rotate(97.0976) scale(283.582 295.211)">
<stop offset="0.557292" stop-color="#541087"/>
<stop offset="0.864583" stop-color="#FF1846" stop-opacity="0.7"/>
<stop offset="1" stop-color="#FF1846" stop-opacity="0.11"/>
</radialGradient>
</defs>
</svg>
