<svg width="62" height="46" viewBox="0 0 62 46" fill="none" xmlns="http://www.w3.org/2000/svg">
<path d="M30.606 26.345L35.0621 22.7271L30.606 19.4098V15.5255L37.3978 20.9523V24.5019L30.606 29.8946V26.345Z" fill="#FF1846"/>
<path d="M38.9395 24.5019V20.9523L45.7313 15.5255V19.4098L41.2752 22.7271L45.7313 26.0103V29.8946L38.9395 24.5019Z" fill="#FF1846"/>
<path d="M6.86087 15.3076C8.54886 15.3076 9.82847 15.8703 10.6997 16.9956C11.5709 18.1209 12.0065 19.6365 12.0065 21.5423V29.1383H8.63054V21.8146C8.63054 20.544 8.41273 19.6093 7.97712 19.0103C7.55966 18.3932 6.87902 18.0846 5.9352 18.0846C4.90062 18.0846 4.04755 18.4749 3.37598 19.2553V29.1383H0V15.5254H3.15818L3.21263 16.4783C4.35611 15.6979 5.57219 15.3076 6.86087 15.3076Z" fill="#FF1846"/>
<path d="M22.4001 29.4105C20.821 29.4105 19.4688 29.0929 18.3435 28.4576C17.2363 27.8042 16.4014 26.9421 15.8387 25.8712C15.2942 24.7822 15.022 23.5751 15.022 22.2502C15.022 20.9796 15.2852 19.818 15.8115 18.7653C16.3379 17.7126 17.1002 16.8776 18.0985 16.2605C19.0968 15.6253 20.2856 15.3076 21.665 15.3076C22.9356 15.3076 24.0064 15.5708 24.8777 16.0972C25.767 16.6235 26.4295 17.3314 26.8651 18.2208C27.3189 19.1101 27.5458 20.1084 27.5458 21.2156C27.5458 21.7601 27.4732 22.3772 27.328 23.0669H18.5341C18.7156 24.2649 19.1875 25.1633 19.9498 25.7623C20.7121 26.3431 21.6287 26.6335 22.6996 26.6335C24.1698 26.6335 25.5311 26.2614 26.7835 25.5172L26.9468 28.3759C26.366 28.6845 25.6854 28.9386 24.9049 29.1383C24.1426 29.3198 23.3077 29.4105 22.4001 29.4105ZM24.1154 20.78C24.1154 20.0721 23.9157 19.4459 23.5164 18.9014C23.1171 18.3569 22.5 18.0846 21.665 18.0846C20.8301 18.0846 20.1586 18.3297 19.6503 18.8197C19.1421 19.3098 18.7973 19.9632 18.6158 20.78H24.1154Z" fill="#FF1846"/>
<path d="M55.0029 29.1713C53.569 29.1713 52.3257 28.8536 51.2729 28.2184C50.2202 27.5831 49.4125 26.73 48.8499 25.6592C48.2872 24.5883 48.0059 23.4085 48.0059 22.1198C48.0059 20.8311 48.2872 19.6423 48.8499 18.5533C49.4125 17.4642 50.2202 16.6021 51.2729 15.9668C52.3257 15.3316 53.569 15.0139 55.0029 15.0139C56.4367 15.0139 57.68 15.3316 58.7328 15.9668C59.7855 16.6021 60.5932 17.4642 61.1559 18.5533C61.7185 19.6423 61.9999 20.8311 61.9999 22.1198C61.9999 23.4085 61.7185 24.5883 61.1559 25.6592C60.5932 26.73 59.7855 27.5831 58.7328 28.2184C57.68 28.8536 56.4367 29.1713 55.0029 29.1713ZM55.0029 26.3942C56.11 26.3942 56.9722 26.004 57.5893 25.2235C58.2246 24.4431 58.5422 23.4085 58.5422 22.1198C58.5422 20.813 58.2246 19.7693 57.5893 18.9889C56.9722 18.1902 56.11 17.7909 55.0029 17.7909C53.8957 17.7909 53.0245 18.1902 52.3892 18.9889C51.7721 19.7693 51.4635 20.813 51.4635 22.1198C51.4635 23.4085 51.7721 24.4431 52.3892 25.2235C53.0245 26.004 53.8957 26.3942 55.0029 26.3942Z" fill="#FF1846"/>
<path fill-rule="evenodd" clip-rule="evenodd" d="M46.9079 12.8775C41.4489 8.11709 33.2423 8.66834 28.5719 14.0241C23.9016 19.3799 24.4723 27.5851 29.9313 32.3455C35.3903 37.1059 43.597 36.5546 48.2673 31.1989C52.9376 25.8431 52.3669 17.6378 46.9079 12.8775ZM48.8961 10.5975C42.1981 4.75677 32.0779 5.40078 26.292 12.0359C20.506 18.6711 21.2452 28.7848 27.9431 34.6255C34.6411 40.4662 44.7613 39.8222 50.5473 33.1871C56.3332 26.5519 55.594 16.4382 48.8961 10.5975Z" fill="url(#paint0_linear)"/>
<path fill-rule="evenodd" clip-rule="evenodd" d="M29.4531 32.2188C34.8411 37.0595 43.055 36.6298 47.8041 31.3438C52.5532 26.0578 52.104 17.8449 46.7161 13.0042C41.3282 8.16357 33.1143 8.59325 28.3652 13.8793C23.616 19.1653 24.0652 27.3781 29.4531 32.2188ZM27.4314 34.4691C34.0421 40.4083 44.1708 39.9143 50.0544 33.3655C55.9379 26.8168 55.3485 16.6932 48.7378 10.754C42.1271 4.81472 31.9985 5.30881 26.1149 11.8576C20.2313 18.4063 20.8207 28.5298 27.4314 34.4691Z" fill="url(#paint1_linear)"/>
<defs>
<linearGradient id="paint0_linear" x1="41.3804" y1="43.6993" x2="41.202" y2="14.5843" gradientUnits="userSpaceOnUse">
<stop offset="0.40615" stop-color="#541087"/>
<stop offset="0.40625" stop-color="#E80633" stop-opacity="0"/>
</linearGradient>
<linearGradient id="paint1_linear" x1="35.4364" y1="1.48219" x2="35.1836" y2="30.5966" gradientUnits="userSpaceOnUse">
<stop offset="0.40615" stop-color="#541087"/>
<stop offset="0.40625" stop-color="#E80633" stop-opacity="0"/>
</linearGradient>
</defs>
</svg>
